<svg width="18" height="34" viewBox="0 0 18 34" fill="none" xmlns="http://www.w3.org/2000/svg">
<g clip-path="url(#clip0_686_86)">
<path fill-rule="evenodd" clip-rule="evenodd" d="M0.705124 32.8847C0.588716 32.7686 0.496359 32.6307 0.433343 32.4788C0.370327 32.3269 0.337891 32.1641 0.337891 31.9997C0.337891 31.8353 0.370327 31.6725 0.433343 31.5206C0.496359 31.3688 0.588716 31.2308 0.705124 31.1147L14.8226 16.9998L0.705124 2.88476C0.588905 2.76846 0.496714 2.63056 0.433816 2.47866C0.370918 2.32686 0.338545 2.16406 0.338545 1.99976C0.338545 1.83536 0.370918 1.67266 0.433816 1.52076C0.496714 1.36896 0.588905 1.23096 0.705124 1.11476C0.821344 0.998458 0.959317 0.906356 1.11117 0.843456C1.26301 0.780556 1.42576 0.748158 1.59012 0.748158C1.75448 0.748158 1.91724 0.780556 2.06908 0.843456C2.22093 0.906356 2.3589 0.998458 2.47512 1.11476L17.4751 16.1148C17.5915 16.2309 17.6839 16.3688 17.7469 16.5207C17.8099 16.6725 17.8424 16.8353 17.8424 16.9998C17.8424 17.1642 17.8099 17.327 17.7469 17.4788C17.6839 17.6307 17.5915 17.7686 17.4751 17.8848L2.47512 32.8847C2.35901 33.0011 2.22107 33.0935 2.06921 33.1565C1.91735 33.2195 1.75454 33.252 1.59012 33.252C1.42571 33.252 1.2629 33.2195 1.11104 33.1565C0.959177 33.0935 0.821239 33.0011 0.705124 32.8847Z" fill="#5DA9F5"/>
</g>
<defs>
<clipPath id="clip0_686_86">
<rect width="34" height="18" fill="white" transform="matrix(0 -1 1 0 0 34)"/>
</clipPath>
</defs>
</svg>
