<svg width="18" height="34" viewBox="0 0 18 34" fill="none" xmlns="http://www.w3.org/2000/svg">
<g clip-path="url(#clip0_686_84)">
<path fill-rule="evenodd" clip-rule="evenodd" d="M17.2949 1.11528C17.4113 1.23139 17.5036 1.36933 17.5667 1.52119C17.6297 1.67306 17.6621 1.83586 17.6621 2.00028C17.6621 2.1647 17.6297 2.3275 17.5667 2.47936C17.5036 2.63122 17.4113 2.76916 17.2949 2.88528L3.1774 17.0002L17.2949 31.1152C17.4111 31.2315 17.5033 31.3694 17.5662 31.5213C17.6291 31.6731 17.6615 31.8359 17.6615 32.0002C17.6615 32.1646 17.6291 32.3273 17.5662 32.4792C17.5033 32.631 17.4111 32.769 17.2949 32.8852C17.1787 33.0015 17.0407 33.0936 16.8888 33.1565C16.737 33.2194 16.5742 33.2518 16.4099 33.2518C16.2455 33.2518 16.0828 33.2194 15.9309 33.1565C15.7791 33.0936 15.6411 33.0015 15.5249 32.8852L0.5249 17.8852C0.4085 17.7691 0.316099 17.6312 0.253099 17.4793C0.190099 17.3275 0.1576 17.1647 0.1576 17.0002C0.1576 16.8358 0.190099 16.673 0.253099 16.5212C0.316099 16.3693 0.4085 16.2314 0.5249 16.1152L15.5249 1.11528C15.641 0.998873 15.7789 0.906516 15.9308 0.8435C16.0827 0.780484 16.2455 0.748047 16.4099 0.748047C16.5743 0.748047 16.7371 0.780484 16.889 0.8435C17.0408 0.906516 17.1788 0.998873 17.2949 1.11528Z" fill="#5DA9F5"/>
</g>
<defs>
<clipPath id="clip0_686_84">
<rect width="34" height="18" fill="white" transform="matrix(0 1 -1 0 18 0)"/>
</clipPath>
</defs>
</svg>
